Coordinates
version=1
nRows=14
nColumns=24
inDegrees=yes

Units are S.I. units (second, meters, Newtons, ...)
Angles are in degrees.

endheader
time	pelvis_tilt	pelvis_list	pelvis_rotation	pelvis_tx	pelvis_ty	pelvis_tz	hip_flexion_r	hip_adduction_r	hip_rotation_r	knee_angle_r	ankle_angle_r	subtalar_angle_r	mtp_angle_r	hip_flexion_l	hip_adduction_l	hip_rotation_l	knee_angle_l	ankle_angle_l	subtalar_angle_l	mtp_angle_l	lumbar_extension	lumbar_bending	lumbar_rotation
      0.01000000	     60.76872137	    -16.55069990	      2.86415300	      0.52632910	      0.95447916	     -0.23319534	      7.07872536	     -8.83154806	    -18.24190272	    -58.01428046	    -18.06841724	      0.00000000	      0.00000000	     26.65080834	    -13.86066313	     11.88254765	    -14.15151047	    -34.89905383	      0.00000000	      0.00000000	      0.00000000	      0.00000000	      0.00000000
      0.02000000	     60.66841662	    -16.54065494	      2.84112455	      0.52647675	      0.95439480	     -0.23321586	      7.19124891	     -8.86425473	    -18.18612261	    -58.03416010	    -18.10536717	      0.00000000	      0.00000000	     26.74062925	    -13.85369831	     11.88897144	    -14.15835823	    -34.92983916	      0.00000000	      0.00000000	      0.00000000	      0.00000000	      0.00000000
      0.03000000	     60.55894072	    -16.53021209	      2.80981326	      0.52656512	      0.95434315	     -0.23320874	      7.31582405	     -8.89422157	    -18.13067380	    -58.05591085	    -18.14206257	      0.00000000	      0.00000000	     26.83626563	    -13.84043605	     11.89623090	    -14.16299642	    -34.96604621	      0.00000000	      0.00000000	      0.00000000	      0.00000000	      0.00000000
      0.04000000	     60.44203286	    -16.51942007	      2.77229315	      0.52661949	      0.95431233	     -0.23318757	      7.44922998	     -8.92431680	    -18.07477396	    -58.07729210	    -18.17663097	      0.00000000	      0.00000000	     26.93514457	    -13.82556255	     11.90485422	    -14.16476142	    -35.00774602	      0.00000000	      0.00000000	      0.00000000	      0.00000000	      0.00000000
      0.05000000	     60.32268513	    -16.50819447	      2.73048316	      0.52667504	      0.95428504	     -0.23316949	      7.58394286	     -8.95499275	    -18.01866756	    -58.09625931	    -18.20696870	      0.00000000	      0.00000000	     27.03167460	    -13.81344752	     11.91546679	    -14.16334997	    -35.05397518	      0.00000000	      0.00000000	      0.00000000	      0.00000000	      0.00000000
      0.06000000	     60.20937793	    -16.49721642	      2.68695431	      0.52673838	      0.95425953	     -0.23315918	      7.70897185	     -8.98438613	    -17.96312888	    -58.11092789	    -18.23169422	      0.00000000	      0.00000000	     27.11727208	    -13.80705120	     11.92844896	    -14.15928252	    -35.10226640	      0.00000000	      0.00000000	      0.00000000	      0.00000000	      0.00000000
      0.07000000	     60.11315362	    -16.48835796	      2.64592610	      0.52678494	      0.95424584	     -0.23315314	      7.81199292	     -9.00970665	    -17.90879171	    -58.11958039	    -18.25088109	      0.00000000	      0.00000000	     27.18169876	    -13.80792598	     11.94341683	    -14.15392486	    -35.14861312	      0.00000000	      0.00000000	      0.00000000	      0.00000000	      0.00000000
      0.08000000	     60.04599108	    -16.48434710	      2.61293363	      0.52680829	      0.95424084	     -0.23314509	      7.88171691	     -9.02828332	    -17.85634997	    -58.12133913	    -18.26603772	      0.00000000	      0.00000000	     27.21548477	    -13.81630501	     11.95873068	    -14.14906770	    -35.18790458	      0.00000000	      0.00000000	      0.00000000	      0.00000000	      0.00000000
      0.09000000	     60.01775704	    -16.48754493	      2.59340299	      0.52680634	      0.95424013	     -0.23314215	      7.91018193	     -9.03824935	    -17.80732317	    -58.11669758	    -18.27925009	      0.00000000	      0.00000000	     27.21262808	    -13.83140229	     11.97137894	    -14.14635536	    -35.21481090	      0.00000000	      0.00000000	      0.00000000	      0.00000000	      0.00000000
      0.10000000	     60.03264660	    -16.49866130	      2.59085392	      0.52677107	      0.95424475	     -0.23316455	      7.89451993	     -9.03922940	    -17.76441869	    -58.10727254	    -18.29209697	      0.00000000	      0.00000000	     27.17259627	    -13.85196224	     11.97752352	    -14.14676694	    -35.22492542	      0.00000000	      0.00000000	      0.00000000	      0.00000000	      0.00000000
      0.11000000	     60.08699338	    -16.51688235	      2.60533311	      0.52673335	      0.95423970	     -0.23320348	      7.83803355	     -9.03299603	    -17.73089651	    -58.09498105	    -18.30500572	      0.00000000	      0.00000000	     27.10089814	    -13.87618056	     11.97373295	    -14.15014690	    -35.21581400	      0.00000000	      0.00000000	      0.00000000	      0.00000000	      0.00000000
      0.12000000	     60.16909018	    -16.54037479	      2.63273871	      0.52673345	      0.95421322	     -0.23322007	      7.75074043	     -9.02312485	    -17.70937887	    -58.08134812	    -18.31726301	      0.00000000	      0.00000000	     27.00799147	    -13.90120366	     11.95852560	    -14.15495964	    -35.18766784	      0.00000000	      0.00000000	      0.00000000	      0.00000000	      0.00000000
      0.13000000	     60.26121930	    -16.56568608	      2.66580130	      0.52673807	      0.95419513	     -0.23320755	      7.64875615	     -9.01375469	    -17.70063500	    -58.06715165	    -18.32752403	      0.00000000	      0.00000000	     26.90705695	    -13.92383198	     11.93346481	    -14.15859653	    -35.14347113	      0.00000000	      0.00000000	      0.00000000	      0.00000000	      0.00000000
      0.14000000	     60.34398964	    -16.58732002	      2.69657071	      0.52669109	      0.95421404	     -0.23320757	      7.55139181	     -9.00886621	    -17.70256551	    -58.05218029	    -18.33451605	      0.00000000	      0.00000000	     26.81180416	    -13.94249863	     11.90295297	    -14.15811478	    -35.08875029	      0.00000000	      0.00000000	      0.00000000	      0.00000000	      0.00000000
